<svg xmlns="http://www.w3.org/2000/svg" width="46.354" height="58.993" viewBox="0 0 46.354 58.993">
  <g id="house_1_" data-name="house (1)" transform="translate(-59.169 0)">
    <path id="Path_120522" data-name="Path 120522" d="M76.379,319.972l-3.073-1.593L67,315.111l-7.6,13.167a1.728,1.728,0,0,0,1.394,2.59l5.122.308,3.461-1.625-.555,3.507,2.608,3.951a1.73,1.73,0,0,0,1.443.777h.052a1.735,1.735,0,0,0,1.445-.864l7.994-13.846Z" transform="translate(0 -278.793)" fill="#ff712f"/>
    <path id="Path_120523" data-name="Path 120523" d="M274.226,326.4l-7.743-13.412-6.244,3.349-3.049,1.636-5.951,3.192,8.014,13.88a1.729,1.729,0,0,0,2.941.088l2.615-3.962-2.291-5.226,5.2,3.353,5.109-.307a1.728,1.728,0,0,0,1.394-2.59Z" transform="translate(-168.934 -276.913)" fill="#fd4e26"/>
    <path id="Path_120524" data-name="Path 120524" d="M302.87,343.681l7.62,13.2,1.167-1.768,1.745-.1-7.483-12.96Z" transform="translate(-214.613 -302.623)" fill="#e61e13"/>
    <path id="Path_120525" data-name="Path 120525" d="M125.107,343.464l-7.388,12.8,1.732.1,1.174,1.779,7.556-13.086Z" transform="translate(-51.802 -303.878)" fill="#fd4e26"/>
    <path id="Path_120526" data-name="Path 120526" d="M106.875,22.705a6.857,6.857,0,0,0-2.592-5.342,6.782,6.782,0,0,0-.485-5.9,7.222,7.222,0,0,0-4.976-3.475A7.127,7.127,0,0,0,95.388,3.01a7.207,7.207,0,0,0-6.027-.474,7.147,7.147,0,0,0-10.921,0,7.228,7.228,0,0,0-6.027.474,7.127,7.127,0,0,0-3.434,4.983A7.219,7.219,0,0,0,64,11.468a6.781,6.781,0,0,0-.485,5.9,6.8,6.8,0,0,0,0,10.684,6.782,6.782,0,0,0,.485,5.9,7.074,7.074,0,0,0,4.976,3.36,6.92,6.92,0,0,0,3.434,4.867,7.225,7.225,0,0,0,6.027.474,7.147,7.147,0,0,0,10.921,0,7.2,7.2,0,0,0,6.027-.474A6.92,6.92,0,0,0,98.822,37.3a7.07,7.07,0,0,0,4.976-3.36,6.781,6.781,0,0,0,.485-5.9,6.857,6.857,0,0,0,2.592-5.342Z" transform="translate(-1.555 0)" fill="#ffe375"/>
    <path id="Path_120527" data-name="Path 120527" d="M267.163,42.17a6.918,6.918,0,0,0,3.36-4.867,6.9,6.9,0,0,0,5.342-9.255,6.894,6.894,0,0,0,0-10.684,6.915,6.915,0,0,0-.474-5.9,7.069,7.069,0,0,0-4.867-3.475,7.13,7.13,0,0,0-3.36-4.983,6.914,6.914,0,0,0-5.9-.474A6.914,6.914,0,0,0,255.926,0V45.18a6.914,6.914,0,0,0,5.342-2.536A6.907,6.907,0,0,0,267.163,42.17Z" transform="translate(-173.08 0)" fill="#ffe375"/>
    <path id="Path_120528" data-name="Path 120528" d="M189.57,113.211l-8.644,8.644v11.386a1.728,1.728,0,0,0,1.729,1.729h5.186l1.729-1.729,1.729,1.729h5.186a1.728,1.728,0,0,0,1.729-1.729V121.855Z" transform="translate(-107.224 -100.163)" fill="#ff712f"/>
    <path id="Path_120529" data-name="Path 120529" d="M262.841,134.97a1.728,1.728,0,0,0,1.729-1.729V121.855l-8.644-8.644v20.03l1.729,1.729Z" transform="translate(-173.462 -100.163)" fill="#ff712f"/>
    <path id="Path_120530" data-name="Path 120530" d="M175.6,102.879,164.8,92.507a1.852,1.852,0,0,0-2.546,0l-10.8,10.373a1.68,1.68,0,0,0,0,2.445,1.853,1.853,0,0,0,2.546,0l9.529-9.151,9.529,9.151a1.853,1.853,0,0,0,2.546,0A1.68,1.68,0,0,0,175.6,102.879Z" transform="translate(-81.182 -81.397)" fill="#766e6e"/>
    <path id="Path_120531" data-name="Path 120531" d="M267.521,105.323a1.728,1.728,0,0,0,0-2.445L257.148,92.506A1.723,1.723,0,0,0,255.926,92v4.173l9.151,9.151A1.728,1.728,0,0,0,267.521,105.323Z" transform="translate(-173.398 -81.396)" fill="#5b5555"/>
    <circle id="Ellipse_67" data-name="Ellipse 67" cx="1.729" cy="1.729" r="1.729" transform="translate(80.617 19.247)" fill="#ffe375"/>
    <path id="Path_120532" data-name="Path 120532" d="M242.655,227a1.729,1.729,0,0,0-1.729,1.729v6.915h3.458v-6.915A1.729,1.729,0,0,0,242.655,227Z" transform="translate(-160.309 -200.837)" fill="#766e6e"/>
    <path id="Path_120533" data-name="Path 120533" d="M257.655,168.729A1.729,1.729,0,0,0,255.926,167v3.458A1.729,1.729,0,0,0,257.655,168.729Z" transform="translate(-173.56 -147.753)" fill="#ffb725"/>
    <path id="Path_120534" data-name="Path 120534" d="M257.655,228.729A1.729,1.729,0,0,0,255.926,227v8.644h1.729Z" transform="translate(-173.56 -200.837)" fill="#5b5555"/>
  </g>
</svg>
