<svg xmlns="http://www.w3.org/2000/svg" width="23.192" height="23.192" viewBox="0 0 23.192 23.192">
  <path id="Icon_material-account-box" data-name="Icon material-account-box" d="M4.5,7.077V25.115a2.576,2.576,0,0,0,2.577,2.577H25.115a2.585,2.585,0,0,0,2.577-2.577V7.077A2.585,2.585,0,0,0,25.115,4.5H7.077A2.576,2.576,0,0,0,4.5,7.077Zm15.462,5.154A3.865,3.865,0,1,1,16.1,8.365,3.86,3.86,0,0,1,19.962,12.231ZM8.365,22.539c0-2.577,5.154-3.994,7.731-3.994s7.731,1.417,7.731,3.994v1.288H8.365Z" transform="translate(-4.5 -4.5)" fill="#8b8b8b"/>
</svg>
