<svg xmlns="http://www.w3.org/2000/svg" width="20.5" height="14.35" viewBox="0 0 20.5 14.35">
  <path id="Icon_awesome-user-friends" data-name="Icon awesome-user-friends" d="M6.15,9.425A3.588,3.588,0,1,0,2.563,5.838,3.586,3.586,0,0,0,6.15,9.425ZM8.61,10.45H8.344a4.953,4.953,0,0,1-4.388,0H3.69A3.691,3.691,0,0,0,0,14.14v.922A1.538,1.538,0,0,0,1.538,16.6h9.225A1.538,1.538,0,0,0,12.3,15.063V14.14A3.691,3.691,0,0,0,8.61,10.45Zm6.765-1.025A3.075,3.075,0,1,0,12.3,6.35,3.076,3.076,0,0,0,15.375,9.425Zm1.538,1.025h-.122a4.039,4.039,0,0,1-2.832,0h-.122a3.558,3.558,0,0,0-1.784.493,4.688,4.688,0,0,1,1.272,3.2v1.23c0,.07-.016.138-.019.205h5.657A1.538,1.538,0,0,0,20.5,14.038a3.586,3.586,0,0,0-3.587-3.587Z" transform="translate(0 -2.25)"/>
</svg>
