<?xml version="1.0" standalone="no"?>
<!DOCTYPE svg PUBLIC "-//W3C//DTD SVG 20010904//EN"
 "http://www.w3.org/TR/2001/REC-SVG-20010904/DTD/svg10.dtd">
<svg version="1.0" xmlns="http://www.w3.org/2000/svg"
 width="104.000000pt" height="102.000000pt" viewBox="0 0 104.000000 102.000000"
 preserveAspectRatio="xMidYMid meet">
<metadata>
Created by potrace 1.16, written by Peter Selinger 2001-2019
</metadata>
<g transform="translate(0.000000,102.000000) scale(0.100000,-0.100000)"
fill="#000000" stroke="none">
<path d="M490 826 c0 -31 -3 -34 -45 -46 -99 -28 -177 -106 -205 -205 -12 -42
-15 -45 -46 -45 -31 0 -34 -3 -34 -30 0 -27 3 -30 34 -30 31 0 34 -3 46 -45
28 -99 106 -177 205 -205 42 -12 45 -15 45 -46 0 -31 3 -34 30 -34 27 0 30 3
30 34 0 31 3 34 45 46 99 28 177 106 205 205 12 42 15 45 46 45 31 0 34 3 34
30 0 27 -3 30 -34 30 -31 0 -34 3 -46 45 -28 99 -106 177 -205 205 -42 12 -45
15 -45 46 0 31 -3 34 -30 34 -27 0 -30 -3 -30 -34z m118 -112 c153 -63 191
-267 71 -381 -146 -138 -388 -36 -389 165 0 130 99 231 228 232 29 0 69 -7 90
-16z"/>
</g>
</svg>
