<svg xmlns="http://www.w3.org/2000/svg" width="279" height="190.943" viewBox="0 0 279 190.943">
  <g id="Group_5517" data-name="Group 5517" transform="translate(18425.674 20937.4)">
    <path id="Path_120349" data-name="Path 120349" d="M584.948,636.776c-.446.437-1,.258-1.514.258H511.269c-3.069,0-4.722-1.633-4.728-4.736-.017-8.335-.038-16.673.023-25.007,0-1.422-.457-1.873-1.83-1.786a9.86,9.86,0,0,0-3.086.643,11.636,11.636,0,0,1-15.344-6.554,11.847,11.847,0,0,1,6.34-15.054,11.62,11.62,0,0,1,9.528.237c.171.081.345.162.524.229,3.263,1.245,3.851.868,3.853-2.536V558.757c0-3.931,1.355-5.283,5.266-5.283q26.1,0,52.206.02c2.252,0,4.5.327,6.763.319.689,0,1.477-.8,1.919-.156.29.408-.15,1.274-.168,1.94a19.189,19.189,0,0,0,.929,6.8c.449,1.3-.727,2.189-1.181,3.257a9.032,9.032,0,0,1-.669.929c-.33.559-.371,1,.489,1.062a12.99,12.99,0,0,1,8.15,3.6,13.47,13.47,0,0,0,8.207,3.048c1.1.081,1.569.313,1.465,1.7-.365,4.9.336,9.8.223,14.707a3.383,3.383,0,0,1-.289,1.827c-.73-.035-.579-.646-.68-1.068-.29-1.323-.75-2.585-1.129-3.879-.1-.347-.188-.767-.7-.825-.443.541-.179,1.106-.02,1.63a12.452,12.452,0,0,1,.388,2.565c.046.538.11,1.158-.538,1.335-.718.206-.869-.46-1.045-.929a32.538,32.538,0,0,1-1.265-4.29,20.819,20.819,0,0,0-.947-2.568c-.119-.321-.327-.654-.735-.547s-.4.5-.417.831a4.485,4.485,0,0,0,.2,1.28c.177.729.683,1.769-.148,2.087-1.034.4-1.129-.892-1.529-1.523s-.579-1.424-.95-2.1c-.174-.321-.29-.73-.935-.73-.24,1.448.425,2.69.868,3.96a23.532,23.532,0,0,1,1.034,3.147c.078.411.234.932-.321,1.115-.5.162-.8-.24-1.019-.62-.394-.666-.6-1.419-.926-2.116a2.265,2.265,0,0,0-1.242-1.447,9.977,9.977,0,0,0,.869,4.183c.46,1.416,1.117,2.762,1.491,4.212a3.439,3.439,0,0,1,.188,1.419c-.13.758-.547.961-1.242.631a3.779,3.779,0,0,1-1.607-1.966c-.362-.7-.727-1.859-1.653-1.421s0,1.335.194,1.992c.547,1.844,1.6,3.474,2.247,5.3a5.671,5.671,0,0,0,2.985,3.219,4.985,4.985,0,0,1,3.185,4.832c.023,1,.333,1.989.316,3.008,0,.394-.015.8-.46.964-.368.142-.648-.093-.909-.29a11.076,11.076,0,0,0-1.763-1.482c-2.119-1.566-3.992-3.439-6.233-4.855a7.493,7.493,0,0,0-4.739-1.366,2.787,2.787,0,0,1-1.549-.217,5.766,5.766,0,0,1-1.306-3.593,37.919,37.919,0,0,1-.382-5.616c.289-6.737-1.193-13.2-3.083-19.6-1.673-5.674-5.7-9.082-10.946-11.331A20.441,20.441,0,0,0,544.143,564a10.022,10.022,0,0,0-6.766,2.8,6.052,6.052,0,0,1-3.387,2.026,2.967,2.967,0,0,0-1.971,1.584,13.73,13.73,0,0,0-1.775,4.1,36.858,36.858,0,0,0-.868,10.451c.318,5.967,1.479,11.849,1.592,17.828a8,8,0,0,1-2.18,6.08c-.128.127-.414.289-.313.414,1.392,1.508-.052,2.973-.041,4.455a2.931,2.931,0,0,1-2.09,1.4,6.54,6.54,0,0,0-3.607,2.713c-3.118,4.343-4.759,9.322-6.407,14.31-.24.729-.452,1.471-.663,2.212-.463,1.618-.261,1.9,1.375,1.937H572.41a9.788,9.788,0,0,1,1.01,0c1.32.139,1.931-.515,2.154-1.757.188-1.042.339-2.09.562-3.127.261-1.213.7-1.343,1.633-.515a11.305,11.305,0,0,1,.955,1.08,1.362,1.362,0,0,0,1.534.512,1.262,1.262,0,0,1,1.2.24A16.116,16.116,0,0,1,584.948,636.776Z" transform="translate(-18776.684 -21390.447)" fill="#e0e0e0"/>
    <path id="Path_120350" data-name="Path 120350" d="M238.546,690.737a4.061,4.061,0,0,0,.541,2.058c.984,2.264.669,3.063-1.6,4.03a71.964,71.964,0,0,0-7.429,3.376,10.477,10.477,0,0,0-2.16,1.413,13.258,13.258,0,0,1-8.089,3.257c-3.034.318-5.79,1.688-8.8,2.076a18.724,18.724,0,0,1-8.257-.339c-2.629-.84-3.613-3.046-4.343-5.333a69.344,69.344,0,0,1-2.449-10.6,8.417,8.417,0,0,0-.211-.825,2.2,2.2,0,0,1-.5-1.158c-.744-7.527-1.3-15.054-1.462-22.613-.107-5.142,3.677-11.337,9.363-13.607a37.838,37.838,0,0,1,9.606-1.919,1.876,1.876,0,0,1,1.795.981c2.284,2.782,4.206,5.842,6.6,8.54a39.5,39.5,0,0,0,6.1,5.883c2.209,1.612,3.4,1.592,5.6.017a24.719,24.719,0,0,0,5.347-5.79c.654-.892,1.291-1.792,1.922-2.7a1.109,1.109,0,0,1,1.277-.449c4.632,1.508,9.2,3.144,13.028,6.337,1.827,1.529,2.542,3.717,3.381,5.79a164.065,164.065,0,0,1,5.958,18.693,1.974,1.974,0,0,1-.2,1.369.712.712,0,0,1-.643.156,4.265,4.265,0,0,0-1.838-.289c-2.232.379-3.862-.764-5.463-2.044-2.478-1.983-5.211-3.613-7.747-5.5-2.849-2.125-5.871-2.116-9.035-1.158-1.563.481-3.138.915-4.684,1.448a1.7,1.7,0,0,0-1.592-.51c-6.256,1.158-12.475,2.519-18.725,3.7-1.08.206-1.517-.211-1.752-1.158-.449-1.647-.582-3.384-1.025-4.765.35,1.282.565,2.875.889,4.444.345,1.676.371,1.763-1.358,2.385a12.588,12.588,0,0,0-5.037,3.526,9.73,9.73,0,0,0-2.012,3.955c-.107.359-.208.837.226,1.025s.692-.255.869-.579a35.714,35.714,0,0,1,2.768-4.887,10.263,10.263,0,0,1,6.69-4.033c5.715-.912,11.363-2.209,17.043-3.312.139-.026.272-.1.414-.122,2.076-.371,2.058-.347,3.04,1.581.359.706.469,1.572,1.207,2.061A14.375,14.375,0,0,1,238.546,690.737Z" transform="translate(-18569.234 -21459.465)" fill="#f8cd46"/>
    <path id="Path_120351" data-name="Path 120351" d="M546.568,423.135a9.9,9.9,0,0,1,.73,7.793,18.111,18.111,0,0,1-2.5,5.59c-1.543,2.278-3.622,2.791-6.117,2.579-4.684-.394-8.014-2.927-10.521-6.708a2.924,2.924,0,0,0-1.838-1.372c-.324-.319-.729-.174-1.1-.177-6.152-.02-12.3.159-18.45.223-4.707.049-9.42-.035-14.131-.09-1.265,0-1.586-.5-1.245-1.76a16.082,16.082,0,0,0,.622-1.917c.153-1.083-.426-1.647-1.274-1.074-1.268.869-2.669.651-4.013.918-.093.017-.217.069-.289.026-1.775-1.158-3.628-.211-5.443-.226a2.489,2.489,0,0,0-1.862.579,3.709,3.709,0,0,1-2.606,1.051,2.136,2.136,0,0,0-2.3,1.563c-.365,1.274-1.361.66-2.16.562a3.049,3.049,0,0,1-1.641-1.381,4.551,4.551,0,0,1-.721-2.73c.061-5.917-.064-11.835.069-17.752a1.9,1.9,0,0,1,.255-.7c2.753-2.446,5.393-5.037,8.584-6.948a16.264,16.264,0,0,1,3.955-1.291c1.563-.463,3.13-.95,4.728-1.271a5.006,5.006,0,0,0,3.61-2.351,1.894,1.894,0,0,1,.709-.7,1.722,1.722,0,0,1,2.493.62c1.847,2.351,3.888,4.534,5.923,6.717a3.8,3.8,0,0,1,.695,2.426,15.494,15.494,0,0,1,.055,2.742c-.044,1.06-.533,1.306-1.366.651a43.578,43.578,0,0,1-5.408-4.979,19.458,19.458,0,0,1-2.215-2.814,37.624,37.624,0,0,0,7.733,7.9c.269.22.617.579,1.019.35s.24-.692.252-1.06c.093-2.973.113-3.014,2.637-1.416,1.158.727,2.218.318,3.326.1a7.36,7.36,0,0,0,.8-.324c1.52-.475,1.711-.365,2.009,1.158a.892.892,0,0,0,.423.686c1.448-2.209,1.76-4.632,1.859-7.4a19.5,19.5,0,0,1-.24,2.962c-.287.9-.437,1.766-.686,2.643-.127.452-.324.851-.842.837-.608-.017-.541-.559-.637-.967-.162-.709.229-1.61-.932-1.966-.42-.127-.29-.973-.142-1.479a26.785,26.785,0,0,0,1.071-5.353c.043-.51.22-.961.869-.9,1.9,1.833,4.479,1.534,6.766,2.122a65.905,65.905,0,0,1,7.666,2.168,12.467,12.467,0,0,1,3.709,2.9c1.835,1.685,3.541,3.512,5.3,5.281.405.411.776.868,1.448.79.336,2.446-.521,4.757-.84,7.13a1.543,1.543,0,0,1-.776,1.158,10.638,10.638,0,0,0-4.948,7.527A11.885,11.885,0,0,1,532,419.4c.373-.379.8-1.042,1.421-.79s.446.993.478,1.552a7.918,7.918,0,0,1-.408,2.7,13.434,13.434,0,0,0-.463,3.856,4.262,4.262,0,0,0,1.068,2.9c1.737,2.006,4,2.38,6.447,2a5.444,5.444,0,0,0,4.632-4.366,16.092,16.092,0,0,0,.379-2.131A2.559,2.559,0,0,1,546.568,423.135Z" transform="translate(-18765.379 -21278.082)" fill="#f8cd46"/>
    <path id="Path_120352" data-name="Path 120352" d="M505.84,215.334c6.436-2.527,14.507-.941,18.577,4.12a12.511,12.511,0,0,0,4.762,3.5,7.414,7.414,0,0,1,2.336,1.656,1.9,1.9,0,0,1-.15,3.08c-.539.452-.223.608.038.868.512.507,1.089.955,1.557,1.5a2.7,2.7,0,0,1-.154,4.053.924.924,0,0,0-.2,1.262,34.975,34.975,0,0,1,2.276,6.928,3.838,3.838,0,0,1-1.676,4.36,1.94,1.94,0,0,0-.979,1.317,2.305,2.305,0,0,1-.081.423c-1.248,2.278-2.493,4.557-3.764,6.815a1.56,1.56,0,0,1-.779.625,5.261,5.261,0,0,0-2.687,2.623,3.622,3.622,0,0,1-3.072,1.864,3.65,3.65,0,0,0-1.89.912,54.275,54.275,0,0,1-7.032,0,.133.133,0,0,1-.119-.078c-1.091-.675-1.158-1.036-.423-2.4a27.716,27.716,0,0,0,4.151-3.109,11.334,11.334,0,0,0,3.413-8.3c0-2.316-.049-4.632.017-6.948a7.914,7.914,0,0,0-1.9-5.029,3.827,3.827,0,0,0-2.53-1.546c-.617-.1-1.233-.223-1.838-.382a3.343,3.343,0,0,1-2.606-2.606c-.674-2.69-.727-2.681-3.494-2.817a9.489,9.489,0,0,1-2.128-.382,2.842,2.842,0,0,0-3.784,2.116,7.328,7.328,0,0,1-2.574,4.07,1.775,1.775,0,0,0-.692,1.621c.043,1.624.556,3.242.075,4.881a3.556,3.556,0,0,1-.617,1.448c-.8.912-1.448.868-1.908-.266a1.9,1.9,0,0,0-2.142-1.3,2.1,2.1,0,0,0-1.983,1.607,3.755,3.755,0,0,0,1.974,4.823,2.208,2.208,0,0,1,1.468,2.244c-.064,1.288.226,2.606-.234,3.865-1.433,1.08-2.831.666-4.088-.255a3.49,3.49,0,0,1-1.448-3.833,3.893,3.893,0,0,0,4.516,4.632c.452-.058.845-.188,1.117.307.179,1.717.657,3.46-.437,5.066-2.1,1.864-5.862,1.56-7.3-1.022-.359-.648-1-.686-1.61-.793a12.512,12.512,0,0,1-5.11-1.864c-2.461-1.7-2.979-3.68-1.543-6.308.515-.95.162-1.207-.727-1.248a13.5,13.5,0,0,1-1.873-.093,1.9,1.9,0,0,1-1.618-2.73c.371-1.158.524-2.154-.837-2.938-1.028-.593-1.074-1.751-.747-2.852a18.784,18.784,0,0,1,2.606-5.292,3.089,3.089,0,0,0,.521-2.553,12.113,12.113,0,0,1-.188-3.859c.258-1.888,1.54-3.413,2.316-5.121.327-.709,1.311-.926,2.119-1.115,1.639-.382,3.274-.779,4.939-1.034.4-.035.825.058,1.141-.29h0c.533-.321.9-.854,1.448-1.158a5.006,5.006,0,0,1,2.959-.336,3.627,3.627,0,0,0,3.251-1.841c.356-.909-.1-.84-.689-.868a5.177,5.177,0,0,1-2.658-.449c-1.662-1.034-1.853-3.017-.185-3.966,2.076-1.181,4.172-2.29,6.146-3.659,1.517-1.054,3.654-.457,5.092,1.028.385.4.579.941,1.378.405.492-.333.851.521,1.32.776a2.957,2.957,0,0,1,1.52,3.529c-.078.347-.426.712.269.845.151.029.13.22-.2.4-.411.226-.842.414-1.265.62-.344.68-1,.646-1.615.695a6.383,6.383,0,0,0-3,.869c-.446.29-1,.738-.672,1.262.431.7.886,0,1.3-.229C502.693,216.634,504.057,215.533,505.84,215.334Z" transform="translate(-18767.826 -21144.15)" fill="#1b2d37"/>
    <path id="Path_120353" data-name="Path 120353" d="M202.182,480.848c-.677-1.028-1.61-1.007-2.724-.851-3.764.524-7.571.868-10.851,3.069-4.267,2.875-6.774,6.769-6.754,12.017a189.99,189.99,0,0,0,1.413,21.423c.087.753.078,1.517.113,2.273-1.393-.62-2.95-.023-4.38-.68a3.311,3.311,0,0,1-2.29-3.135c-.1-2.927-.272-5.883-.2-8.784.475-20.265,0-40.554.182-60.828a4.506,4.506,0,0,1,2.7-4.024c-.052-.454-.4-.469-.634-.579a3.522,3.522,0,0,1-2.342-3.454q0-12.724-.02-25.442c0-.935.29-1.207,1.233-1.259a15.271,15.271,0,0,1,5.469,1.057,10.682,10.682,0,0,0,7.128-.1,10,10,0,0,0,3.266-1.786c.318.032.643.058.637.5a2,2,0,0,1-1.022.976,12.6,12.6,0,0,0-6.2,8.488c-1.2,4.814-1.885,9.736-2.82,14.605-.336,1.737-.643,3.506-.941,5.263-.1.579-.122,1.28-.869,1.534a7.8,7.8,0,0,0-.941.035c-.191.029.107.246,0,.087-.046-.067-.017-.1.09-.113,8.123-.579,16.259-.13,24.385-.258.579,0,1.193-.032,1.448.677a2.022,2.022,0,0,1-.446,1.335,18.015,18.015,0,0,0-2.348,13.274,4.881,4.881,0,0,1,.1,1.575c-.1.7-.614,1.022-1.178,1.346a3.874,3.874,0,0,0-1.9,4.163,3.835,3.835,0,0,0,3.005,2.95c2.229.524,2.423.758,2.441,2.988,0,1.057.043,2.119,0,3.185a7.672,7.672,0,0,0,.831,4.18c0,.2-.029.385-.266.426-.518.1-1.112-.455-1.563.226-.6.9-1.531,1.61-1.517,2.834a.8.8,0,0,1-.2.35C203.514,480.489,202.622,479.7,202.182,480.848Z" transform="translate(-18556.855 -21288.387)" fill="#e0e0e0"/>
    <path id="Path_120354" data-name="Path 120354" d="M369.242,529.383c-1.757-6.051-3.474-12.113-5.721-18.013-1.338-3.5-2.933-6.711-6.595-8.349-1.054-.472-2.027-1.115-3.089-1.56-2.041-.851-4.114-1.624-6.178-2.414-.541-.208-1.106-.405-1.555.2-1.983-.738-2.747-2.426-3.335-4.259.064-.816.362-1.586.417-2.409a1.783,1.783,0,0,1,1.23-1.479c.579-.249,1.158-.452,1.737-.7a7.922,7.922,0,0,0,4.942-6.612,21.994,21.994,0,0,0,.171-7.041,21.585,21.585,0,0,1-.075-3.894c0-3.706-.29-7.4-.637-11.079a9.225,9.225,0,0,0-1.922-4.464,4.317,4.317,0,0,1-.924-2.814.736.736,0,0,1,.22-.446,3.519,3.519,0,0,1,2.11-.289q11.564,0,23.129-.02c.492,0,1.054.249,1.474-.223-.6-2-1.054-4.053-1.836-5.981a2.707,2.707,0,0,1-.11-1.54c.255-.938,1.123-1.28,1.809-1.769.808-.579.848-1.115.289-1.917-3.115-4.56-6.334-9.044-9.748-13.387-.324-.414-.918-.813-.313-1.448a13.97,13.97,0,0,0,4.024,1.375.869.869,0,0,1,.677.5c.7,1.618,1.9,3.051,2.044,4.864.09,1.158.869,1.786,1.448,2.571.359.469.663.061.941-.194a1.735,1.735,0,0,1,2.1-.457,1.8,1.8,0,0,1,.895,1.974c-.417,3.352.289,6.659.307,9.994a5.571,5.571,0,0,1-.4,2.817c-.486.88-.408,1.546.643,1.9a.365.365,0,0,1,.226.466c-1.065.327-1.517.643-.345,1.6,1.714,1.4,1.917,2.553,1.158,4.606a7.587,7.587,0,0,0-.162,3.711,27.545,27.545,0,0,1,.211,3.442c.075,5.24.46,10.474.318,15.72-.035,1.245-.171,1.705-1.757,1.775-1.795.075-3.124-.782-4.58-1.3a8.665,8.665,0,0,0-5.833-.159,18.166,18.166,0,0,0-5.147,2.027,9.07,9.07,0,0,0-3.816,6.6,10.677,10.677,0,0,0,2.452,8.65c1.647,1.96,4.236,2.93,6.922,3.425s5.118-.29,7.623-.869c.093-.02.188-.043.29-.072,3.167-.964,3.848-.5,3.848,2.661,0,7.084-.148,14.171.029,21.25.1,3.763-1.757,4.649-4.814,4.719-3.807.084-7.617.02-11.424.02H345.83c.145-.8.831-.741,1.355-.738,5.712.035,11.427-.261,17.133.151,1.433.1,2.9-.177,4.3.24h.663c1.751-.119,3.5-.064,5.255-.07-1.21,0-2.429-.078-3.63.023C369.871,530.767,369.332,530.422,369.242,529.383Z" transform="translate(-18675.117 -21300.979)" fill="#e0e0e0"/>
    <path id="Path_120355" data-name="Path 120355" d="M381.979,327.786c-1.917-.709-1.9-.7-1.054-2.837a6.089,6.089,0,0,0,.145-3.13c-.33-2.139.116-4.317-.579-6.459-.29-.869.475-1.948.365-3.02-.075-.727-.165-1.4-.967-1.549a1.361,1.361,0,0,0-1.627.868c-.405,1.068-.895.689-1.248.041-.62-1.138-1.737-1.879-1.673-3.57.049-1.314-1.109-2.678-1.751-4.01a.958.958,0,0,0-.941-.579c-1.6.333-2.539-.889-3.746-1.479-.848.032-1.285-.625-1.737-1.158a12.738,12.738,0,0,0-6.986-4.224,95.53,95.53,0,0,1-9.991-2.814,2.05,2.05,0,0,1-1.329-2.166,17.2,17.2,0,0,1,.4-2.7c.122-.782.767-1.031,1.448-1.245a8.227,8.227,0,0,0,6.245-8.451c.026-3.185,0-6.352,0-9.528a9.17,9.17,0,0,1,.249-2.574,46.736,46.736,0,0,1,2.079-4.751c.035-.09.069-.217.139-.249,1.572-.66,2.449-2.2,3.85-3.048.53-.321,1.109-.562.99-1.228-.182-1.036.394-1.384,1.2-1.63a1.748,1.748,0,0,0,.266-.1c.536-.289,1.349-.405,1.184-1.219-.153-.75-.929-.759-1.54-.79a15.2,15.2,0,0,1-3.271-.538c-.6-.171-1.3-.339-1.5-1-.234-.761.579-1.019.955-1.465a.759.759,0,0,1,.747-.342c.171.868.868.6,1.39.605,5.33,0,10.662.035,15.992-.017,1.552-.017,2.881.148,3.535,1.8.046.119.327.145.5.211l.18.177a3.572,3.572,0,0,1,.226,1.841c0,5.732.046,11.467-.017,17.2-.023,2.206-.313,4.406-.307,6.624,0,1.306-.909,1.809-2.371,1.317s-2.912-1-4.374-1.491a8.594,8.594,0,0,0-2.661-.625c-4.632,0-7.976,2.255-10.217,6.132-2.027,3.5-1.39,6.992.405,10.442,2.293,4.4,10.422,6.893,14.924,4.632a6.421,6.421,0,0,1,3.086-.631c1,.026,1.529.492,1.523,1.505a49.884,49.884,0,0,1-.1,5.5V323.88c0,.759.113,1.555-.553,2.145A2.02,2.02,0,0,1,381.979,327.786Z" transform="translate(-18679.447 -21175.471)" fill="#e0e0e0"/>
    <path id="Path_120356" data-name="Path 120356" d="M538.648,307.185c.886-.869.452-1.972.5-2.979.038-.712-.046-1.427-.078-2.142a.64.64,0,0,1,0-.7c0-1.4-.032-2.794.02-4.186.029-.808-.246-1.335-1.051-1.448-2.339-.318-3.254-3.79-2.18-5.955a2.744,2.744,0,0,1,3.057-1.413,1.728,1.728,0,0,1,1.685,1.809c.061.868.452.831,1,.324a2.382,2.382,0,0,0,.744-1.523,12.057,12.057,0,0,0,.049-3.014c-.226-1.7-.689-3.474,1.448-4.522a2.767,2.767,0,0,0,1.366-2.134c.116-1.685,1.338-2.559,2.255-3.677.29-.362.521-.622,1.06-.29a7.651,7.651,0,0,0,4.175.9c1.856,0,2.545.44,2.785,2.223.289,2.273,1.572,3.158,3.691,3.491a6.41,6.41,0,0,1,5.362,6.207c.09,3.6.53,7.238-.3,10.793a12.088,12.088,0,0,1-7.463,8.581,3.056,3.056,0,0,1-2.374.214,31.219,31.219,0,0,1-6.986-2.406c2.082,2.91,4.971,3.8,8.051,4.343.356.061.785-.159,1.048.261a1.314,1.314,0,0,0,.521,1.465c-.993.579-.527,1.589-.608,2.371-.185,1.807-1.158,3.451-1.094,5.272.5.261.657-.44,1.172-.235v2.258c0,.266-.1.666.272.727.446.072.478-.342.579-.666a13.981,13.981,0,0,0,.886-5.075,1.362,1.362,0,0,1,.7-1.508,23.6,23.6,0,0,1-.174,3.3,22.544,22.544,0,0,1-1.1,4.458,3.074,3.074,0,0,1-.5.851c-.24.289-.51.648-.961.449-.391-.174-.336-.594-.29-.895.319-1.618-.868-1.682-1.6-1.129-.869.651-1.841.374-2.71.8-.753.373-1.422-.579-2.116-.95a5.987,5.987,0,0,0-1.694-.984v3.2c0,.735-.2,1.225-1,.64a32.058,32.058,0,0,1-8.975-9.594,39.858,39.858,0,0,0,9.215,8.937,10.232,10.232,0,0,0-.13-5c-.217-1.141-1.566-2.108-2.507-3.057a45.957,45.957,0,0,1-3.865-4.458c-.507-.657-1.086-1.138-1.98-.654C538.512,309.353,539.514,308.3,538.648,307.185Z" transform="translate(-18812.043 -21192.77)" fill="#c27362"/>
    <path id="Path_120357" data-name="Path 120357" d="M440.066,289.638c1.349.5.6,1.508.51,2.316-.038.333-.391.631-.6.944-1.28,2.273-3.4,3.06-5.816,3.642-3.561.868-7.33,1.364-10.133,4.134-1.714,1.694-3.7,3.057-5.527,4.612-.732-.127-.5-.724-.512-1.158-.038-1.4-.032-2.791,0-4.186,0-.73-.289-1.028-1.019-1.048a7.153,7.153,0,0,0-3.219.579c-4.9,2.212-12.643.376-15.451-4.835-2.606-4.861-2.238-9.3,2.18-13.448,3.512-3.292,7.6-3.853,12.014-1.992a22.4,22.4,0,0,0,2.837,1.045c.813.223,1.685.489,2.406-.289.174-2.9.188-5.773.24-8.659v-16.5a2.184,2.184,0,0,0-.261-1.526l-.029-.075a4.58,4.58,0,0,1,4.594-2.582c.246.559-.232.75-.527,1.039a4.385,4.385,0,0,0-1.6,3.671,4.718,4.718,0,0,1,5.932-4.707,37.868,37.868,0,0,0,4.316.174c.388.035.981-.365,1.158.382-1.783.4-3.57.782-5.344,1.216-1.7.414-2.287,1.08-2.3,2.768,0,.541-.316.625-.579.869a2.364,2.364,0,0,0-1.071,1.8,41.022,41.022,0,0,0,.538,4.951,1.184,1.184,0,0,1-.255,1.123,19.878,19.878,0,0,0-2.854,5.156c-.845,2.163-.556,2.669,1.349,4.021.675.481.423,1.673.087,2.441-.706,1.613-.313,2.417,1.471,2.606a13.682,13.682,0,0,1,2.727.194c.689.208.831.431.3,1.074-2.07,2.539-1.6,4.826,1.207,6.575a11.706,11.706,0,0,0,5.324,1.633c.4.035.834-.084,1.12.428,1.447,2.637,3.436,3.263,6.169,1.989C439.652,289.884,439.858,289.754,440.066,289.638Z" transform="translate(-18713.432 -21175.221)" fill="#ebebeb"/>
    <path id="Path_120358" data-name="Path 120358" d="M193.816,298.536a.741.741,0,0,1-.646-.318c1.494-1.673,2.927-3.315,3.347-5.726.973-5.619-1.986-9.678-7.128-11.019a9.9,9.9,0,0,0-7.116.646,11.315,11.315,0,0,1-5.211.767c-.666,0-.941-.255-.967-.929a32.11,32.11,0,0,0-.133-4.893c-.1-.518.29-.5.625-.55a16.768,16.768,0,0,0,9.1-4.838c1.39-1.326,3.185-1.175,4.849-1.474,1.242-.226,1.737-.631.869-1.642-1.676-1.983-1.575-4.053-.9-6.4.773-2.689.272-5.428-.373-8.106-.208-.868-.156-1.193.845-1.19,4.319,0,8.642-.353,12.952.24.342,1.656-.793,2.556-1.841,3.445-.756.643-1.39,1.094-.1,1.856.695.405.35,1.106.084,1.679s-.133.779.423,1.216c1.338,1.06,3,1.957,2.947,4.125-.035,1.447.744,2.9.29,4.4a3.945,3.945,0,0,0-1.775,4.493,3.041,3.041,0,0,0,2.7,2.606c1.737.33,2.232.811,2.258,2.579.064,4,.038,7.993,0,11.988a2.478,2.478,0,0,1-.669,1.85,8.8,8.8,0,0,1-3.008,1.285c-3.257,1.117-6.511,2.232-9.672,3.607C195.034,298.487,194.473,298.889,193.816,298.536Z" transform="translate(-18556.539 -21176.842)" fill="#e1e1e1"/>
    <path id="Path_120359" data-name="Path 120359" d="M801.059,684.866c1.1.243,1.448,1.488,2.588,1.925a26.475,26.475,0,0,0-.761-6.369c-.171-1.025-1.479-1.3-2.316-1.812a8.622,8.622,0,0,1-3.958-5.037c-.527-1.647-1.5-3.185-2.079-4.849-.2-.579-.912-1.3.1-1.685a1.606,1.606,0,0,1,2.053.869c.443.787.556,1.772,1.285,2.371.289.249.669.773,1.086.533.478-.275.29-.892.156-1.32-.437-1.361-.892-2.719-1.448-4.053a23.1,23.1,0,0,1-1.277-4.7c-.061-.33-.206-.692.151-.912s.614.078.883.289c1.031.785,1.245,2.027,1.737,3.109.223.507.313,1.086,1.077,1.448a15.505,15.505,0,0,0-1.123-3.984,33,33,0,0,1-1.06-3.555c-.116-.48-.174-1.138.489-1.355s.868.4,1.129.848c.738,1.34,1.071,2.9,2.076,4.183.518-.469.321-.958.165-1.448a5.568,5.568,0,0,1-.417-2.1c.035-.6.023-1.225.819-1.283.692-.049,1.022.408,1.207,1.016.7,2.287,1.384,4.577,2.128,6.85.107.327,0,1.068.651.892s.13-.73.159-1.117a13.929,13.929,0,0,0-.579-3.384c-.09-.527-.272-1.34.428-1.505s1.123.51,1.245,1.135c.324,1.691,1.259,3.225,1.254,5,0,.119.145.237.223.356-.263,1.85.579,3.555.677,5.385a32.865,32.865,0,0,0,1.349,8.755c1.372,4.053,2.95,8.057,4.114,12.159,1.207,4.262,3,8.329,4,12.651.347,1.5,1.236,2.785,1.555,4.3a8,8,0,0,1-.851,6.08c-.976,1.592-3.616,2.4-5.747,2.076-3.57-.544-5.834-2.9-7.99-5.457-.579-.683-1.019-1.52-2.006-1.72-1.268-.889-2.055-2.249-3.185-3.263-.356-.316-.579-.77-1.129-.8-.153-.617.385-.834.706-1.141q2.134-2.055,4.406-3.958a2.657,2.657,0,0,0,1.06-2.779c-.553-2.739-1.091-5.48-1.685-8.213-.171-.773-.779-1.158-1.248-1.714C802.382,686.745,801.059,686.3,801.059,684.866Z" transform="translate(-18995.943 -21463.15)" fill="#febf9d"/>
    <path id="Path_120360" data-name="Path 120360" d="M690.808,367.446a12.032,12.032,0,0,0-.848,3.607c-.895,4.719-4.429,6.08-8.341,5.211-4.369-.979-5.3-3.654-4.58-7.848.289-1.737.979-3.419.608-5.446-2.993,2.148-4.151,5.211-4.811,8.729a9.2,9.2,0,0,1,1.317-5.9,11.159,11.159,0,0,1,3.419-3.445c1.158-.637.822-1.908.97-2.86.246-1.589.944-3.147.579-4.817-.023-.113.226-.289.347-.428l2.1-13.317a3,3,0,0,0-.99-2.852,7.735,7.735,0,0,1-2.536-5.871c-.015-1.662-.368-3.318-.541-4.979-.046-.446-.29-.99.289-1.285.64-.33.981.165,1.317.565a1.952,1.952,0,0,1,.408.738,7.567,7.567,0,0,1,.289,1.691c.023.868.347,2,1.048,1.951.845-.064.729-1.254.724-2.053,0-2.357-.038-4.716-.058-7.076a6.211,6.211,0,0,1,.188-1.867c2.189,1.867.918,4.678,1.778,6.948.75-.469.611-1.089.614-1.641v-7.078c0-.524-.038-1.21.666-1.239.79-.029.764.68.811,1.265a32.214,32.214,0,0,0,.814,6.23,6.468,6.468,0,0,0,.579-3.416,4.922,4.922,0,0,1,.055-1.294c.194-.637.119-1.668,1.1-1.586s.628,1.036.637,1.636c.032,2.36,0,4.719.017,7.078,0,.4-.373,1.117.362,1.158.579.032.539-.663.706-1.106a6.567,6.567,0,0,0,.29-2.267,3.283,3.283,0,0,1,.023-.869c.223-.77-.032-2.116,1-2.067.889.043.373,1.268.411,1.948.252,4.785-.776,9.42-1.821,14.041a13.734,13.734,0,0,0-.289,3.6c.154,3.888,0,7.782.382,11.667a115.313,115.313,0,0,1,.336,12.533C690.177,366.218,690.825,366.707,690.808,367.446Z" transform="translate(-18909.637 -21222.396)" fill="#c27362"/>
    <path id="Path_120361" data-name="Path 120361" d="M265.6,248.461c-.29-1.8-.6-3.593-.828-5.4-.1-.79-.289-1.259-1.216-1.132-.625.084-1.219.038-.825-.912.194-.469-.142-.362-.46-.345-1.21.055-1.3-.608-.8-1.465s1-1.531-.463-1.983c-.868-.263-.929-.868-.067-1.407a5.955,5.955,0,0,0,2.933-3.743c1.254-2.9,3.324-4.453,6.612-4.157,2.111.188,2.38-.026,3.665-1.795,1.882-2.582,4.652-3.008,7.568-2.993a14.4,14.4,0,0,1,11,4.762c2.241,2.426,3.344,2.467,6.039.663.715-.478.935-.177,1,.507a3.932,3.932,0,0,1-.359,2.1,6.674,6.674,0,0,1-1.72,1.641,7.067,7.067,0,0,0,3.219,1.132c.617.075,1.245.084,1.862.168.793.107,1.763.072,1.882,1.158s-.816,1.309-1.552,1.624a10.111,10.111,0,0,1-1.526.4c.579,1.809.272,2.342-1.569,2.64-.457.072-.5.162-.475.6.067,1.158-.544,1.737-1.679,1.511-.718-.139-.808.33-1,.747-.7,1.52-1.4,3.046-2.09,4.565-.987-.29-.837-1.172-.918-1.867a26.267,26.267,0,0,1-.049-3.6c.02-.95-.275-1.537-1.294-1.737a11.606,11.606,0,0,1-7.608-5.078c-2.756-4.039-6.754-3.2-10.1-1.448a2.6,2.6,0,0,0-1.3,2.69,28.077,28.077,0,0,1-1.421,10.515,11.673,11.673,0,0,1-1.419,2.973c-.437.611-1.106,1.01-1.694.359a4.158,4.158,0,0,0-2.915-1.332A.614.614,0,0,1,265.6,248.461Z" transform="translate(-18616.521 -21155.787)" fill="#1b2d36"/>
    <path id="Path_120362" data-name="Path 120362" d="M361.848,759.762c-6.76.017-13.523.023-20.283.072-.834,0-1.723-.289-2.5.289l-1.448,1.158c-1.254-1.667-1.656-3.764-2.852-5.472-.7-1.091-1.569-2.11-1.534-3.52.084-.229.177-.437.452-.509,2.689-.7,5.309-1.737,8.106-1.928a5.317,5.317,0,0,1,3.051.6,110.618,110.618,0,0,1,12.075,8.32,3.056,3.056,0,0,0,1.737.481C359.732,759.357,360.9,758.919,361.848,759.762Z" transform="translate(-18668.332 -21530.002)" fill="#fcbf9d"/>
    <path id="Path_120363" data-name="Path 120363" d="M478,504.718c.932-.015,1.934.258,1.911-1.343-.015-1.054,1.172-1.158,1.9-1.158a4.378,4.378,0,0,0,3.416-1.378c.1-.1.243-.159.35-.255.984-.868,2.168.895,3.185-.307,1.141-1.338,2.027-.133,2.912.478a.828.828,0,0,0,.947,0,1.792,1.792,0,0,1,1.644-.168,1.433,1.433,0,0,0,1.665-.553,1.737,1.737,0,0,1,2.116-.411c.782.35.385,1.115.347,1.778a7.31,7.31,0,0,1-.744,2c-.33.964-.107,1.335.929,1.323,2.936-.026,5.874,0,8.81,0h23.2c.553,0,1.158-.206,1.636.29q-16.982.1-33.968.182c-2.472,0-2.458,0-2.918,2.429a17.416,17.416,0,0,1-.594,2.218c-.515,1.566-1.772,1.1-2.959,1.236-.95.11-1.543,2.108-2.941.6a1.245,1.245,0,0,0-.651-.229,2.422,2.422,0,0,1-2.354-2.675c-.046-.976.061-2.009-1.54-1.613a1.161,1.161,0,0,1-1.393-.967c-.188-.808-.787-.97-1.54-.987C480.215,505.2,479.025,505.413,478,504.718Z" transform="translate(-18771.25 -21352.096)" fill="#c07260"/>
    <path id="Path_120364" data-name="Path 120364" d="M941.106,390.25c-1.048.229-2,.376-2.921.654-.961.29-1.285-.133-1.468-.981-.761-3.526-.973-2.881,2.082-3.474,2.116-.417,2.11-.44,1.615-2.493-.62-2.562-.113-3.17,2.629-3.268.677-.023.828.454.949.868.232.828.345,1.688.533,2.527.208.921.6,1.546,1.685.95a2.217,2.217,0,0,1,.686-.191c2.9-.536,2.854-.53,3.327,2.383.093.579,0,.8-.507.944-.324.09-.637.214-.964.289-2.669.579-3.106,1.21-2.374,3.952.33,1.23,0,1.65-1.19,1.815-2.192.3-2.1.324-2.747-1.841C942.212,391.617,942.36,390.369,941.106,390.25Z" transform="translate(-19096.928 -21267.732)" fill="#fc735c"/>
    <path id="Path_120365" data-name="Path 120365" d="M26.9,696.463c-.77.07-.738-.446-.926-.822-.475-.967-.081-2.551-1.233-2.881-.869-.252-2.027.313-3.014.663-.727.26-.935.081-1.031-.611a3.511,3.511,0,0,0-.431-1.216c-.434-.75-.087-1.051.593-1.242.321-.093.628-.24.95-.336,2.469-.753,2.371-.191,1.566-3.115-.151-.553-.814-1.28-.206-1.673a8.606,8.606,0,0,1,2.585-.8c.2-.049.29.191.356.382.148.455.327.9.452,1.361.605,2.276.6,2.278,2.782,1.618,2-.6,2.507-.258,2.768,1.856.069.55-.185.718-.663.9-1.022.391-2.5.24-2.979,1.2s.524,2.047.651,3.138c.032.29.246.672-.081.758A7.575,7.575,0,0,0,26.9,696.463Z" transform="translate(-18445.75 -21483.537)" fill="#fb715d"/>
    <path id="Path_120366" data-name="Path 120366" d="M584.342,382.239c-2.863.579-9.093-2.113-9.742-5.269,3.277,1.329,6.4,2.973,10,2.869a1.621,1.621,0,0,0,.258,2.264Z" transform="translate(-18839.885 -21265.09)" fill="#7d4334"/>
    <path id="Path_120367" data-name="Path 120367" d="M468.34,460.644c.579-3.3.206-6.621.269-9.93.064-3.416.023-6.835.029-10.251a.339.339,0,0,1,.541-.02v15.593a24.118,24.118,0,0,0,.289,5.3C469.064,461.162,468.931,460.528,468.34,460.644Z" transform="translate(-18764.355 -21310.098)" fill="#b7786e"/>
    <path id="Path_120368" data-name="Path 120368" d="M189.135,271.707a1.713,1.713,0,0,1-1.737,1.943,1.691,1.691,0,0,1-1.888-1.711,1.763,1.763,0,0,1,1.812-1.931A1.673,1.673,0,0,1,189.135,271.707Z" transform="translate(-18563.283 -21189.096)" fill="#253137"/>
    <path id="Path_120369" data-name="Path 120369" d="M137.028,271.737a1.756,1.756,0,0,1-1.807,1.9,1.737,1.737,0,0,1-1.841-1.9A1.676,1.676,0,0,1,135.233,270C136.411,270,136.874,270.782,137.028,271.737Z" transform="translate(-18526.246 -21189.09)" fill="#263232"/>
    <path id="Path_120370" data-name="Path 120370" d="M159.167,271.361a1.637,1.637,0,0,1,1.943-1.355,1.7,1.7,0,0,1,1.636,1.954,1.664,1.664,0,0,1-1.9,1.691C159.732,273.637,159.049,272.751,159.167,271.361Z" transform="translate(-18544.564 -21189.088)" fill="#263132"/>
    <path id="Path_120371" data-name="Path 120371" d="M819.143,561.481c-.084,1.158-.579,1.9-1.737,1.931a1.8,1.8,0,1,1-.156-3.59A1.708,1.708,0,0,1,819.143,561.481Z" transform="translate(-19011.152 -21395.006)" fill="#272e31"/>
    <path id="Path_120372" data-name="Path 120372" d="M843.57,563.375a1.673,1.673,0,0,1-1.653-1.818,1.83,1.83,0,0,1,3.659.026A1.789,1.789,0,0,1,843.57,563.375Z" transform="translate(-19029.912 -21394.955)" fill="#222f34"/>
    <path id="Path_120373" data-name="Path 120373" d="M871.268,561.6a1.756,1.756,0,0,1-1.893,1.824,1.8,1.8,0,1,1,.058-3.593A1.744,1.744,0,0,1,871.268,561.6Z" transform="translate(-19048.148 -21395.012)" fill="#262d30"/>
    <path id="Path_120374" data-name="Path 120374" d="M569.871,235.292c-1.673,1.007-3.546,1.673-5.052,2.965-.391.336-.808.544-1.257.058a.982.982,0,0,1-.014-1.32c.909-1.413,2.406-1.7,3.891-1.815a6.962,6.962,0,0,0,1.792-.339C569.324,235.176,569.642,235.176,569.871,235.292Z" transform="translate(-18831.852 -21164.107)" fill="#c37060"/>
    <path id="Path_120375" data-name="Path 120375" d="M488.7,244.179a36.087,36.087,0,0,0-8.289-.151c-1.317.064-2.852,2.391-2.953,3.917-.038.565,0,1.132-.084,1.694-.813-2.516.376-4.343,2.056-6.019a7.006,7.006,0,0,0,5.68-2.97c.087.869-.562,1.109-.909,1.558-.252.324-.811.524-.634,1.034s.741.313,1.138.324c1.633.043,3.266.052,4.9.075C489.6,244.312,489.168,244.275,488.7,244.179Z" transform="translate(-18770.598 -21168.236)" fill="#a4a5a6"/>
    <path id="Path_120376" data-name="Path 120376" d="M610.44,395h7.032A21.312,21.312,0,0,1,610.44,395Z" transform="translate(-18865.357 -21277.9)" fill="#c27362"/>
    <path id="Path_120377" data-name="Path 120377" d="M521.728,247c-.449.431-.767,1.025-1.448,1.158C520.668,247.657,521,247.075,521.728,247Z" transform="translate(-18801.275 -21172.748)" fill="#a4a5a6"/>
    <path id="Path_120378" data-name="Path 120378" d="M653.78,737.78a9.467,9.467,0,0,0,2.278,2.374,4.092,4.092,0,0,1,1.589,2.736c.417,2.449,1.025,4.869,1.529,7.3a3.019,3.019,0,0,1-1.32,3.448,63.113,63.113,0,0,0-5.246,4.69c-.811.924-1.448.733-2.131-.214a6.339,6.339,0,0,0-1.714-1.945c-.336,1.673-.706,3.245-.958,4.835-.174,1.074-.7,1.4-1.757,1.387-4.719-.049-9.438-.026-14.16-.026h-43.2c-1.963,0-2.166-.206-1.61-2.026,1.569-5.211,3.185-10.39,5.949-15.127.6-1.031,1.343-1.983,2.027-2.965.9-1.271,2.345-1.621,3.688-2.116a3.042,3.042,0,0,0,1.447-.869,14.874,14.874,0,0,1,4.053-1.8c2.047-.831,4.076-1.72,6.181-2.4a1.979,1.979,0,0,0,1.543-2.249c-.029-.869-.307-1.838.446-2.606.869.4.579,1.2.643,1.876-.379,2.287.547,3.8,2.585,4.9a6.881,6.881,0,0,0,7.113-.235c.75-.42,1.416-.99,2.16-1.448.429-.255.831-.706,1.427-.394a1.57,1.57,0,0,1,.289.952,37.667,37.667,0,0,1-1.824,13.471,9.051,9.051,0,0,0,.9-1.844c.246-.732.518-1.448.785-2.177.145-.4.307-.909.825-.869s.648.515.741.95a20.276,20.276,0,0,1,.379,2.429c.093.99.6,1.526,1.618,1.375a18.869,18.869,0,0,0,7.238-2.331,4.589,4.589,0,0,0,2.1-3.616c.046-.382.02-.773.087-1.158.058-.33.09-.73.469-.819s.6.24.782.53c.359.579.53,1.23.923,1.809,1.2-3.321.443-6.552-.255-9.794-.165-.761-.695-1.537-.1-2.339,3.022-.533,5.559.562,7.843,2.4C650.729,735.16,652.243,736.484,653.78,737.78Z" transform="translate(-18848.613 -21516.066)" fill="#fe715c"/>
    <path id="Path_120379" data-name="Path 120379" d="M671.953,630.46c.408,2.22,1.106,4.38,1.314,6.659a14.679,14.679,0,0,1-.869,6.659l-1.737-3.532a28.562,28.562,0,0,1-.411,3.164,4.922,4.922,0,0,1-2.7,3.2,22.8,22.8,0,0,1-6.615,1.989c-1.954.29-2.006.188-2.281-1.737a26.906,26.906,0,0,0-.628-3.28c-1.068,2.1-1.482,4.516-3.347,6.216a43.533,43.533,0,0,0,2.215-15.946,22.3,22.3,0,0,1,.234-6.853,21.433,21.433,0,0,1,2.863-8.714c.4-.617.408-.611,1.653-.976.223-1.737,2.05-.973,2.872-1.853a3.943,3.943,0,0,0,.889-3.358,2.3,2.3,0,0,0-.9-1.737,1.218,1.218,0,0,0-2.076.7,5.752,5.752,0,0,1-1.034,2.2,2.515,2.515,0,0,1-2.562.964,2.387,2.387,0,0,1-1.87-1.824,14.635,14.635,0,0,1-.515-2.985,4.15,4.15,0,0,0-1.827-3.283,5.519,5.519,0,0,1-1.291-1.158,4.412,4.412,0,0,0-3.668-1.668c-.579,0-1.424.133-1.523-.7-.087-.706.637-.895,1.2-1.022.987-.226,1.019-.6.408-1.358a19.494,19.494,0,0,0-6.421-5.5c-2.267-1.112-3.494-.779-4.982,1.254a12.723,12.723,0,0,0-2.545,6.08,66.747,66.747,0,0,0,.032,18.12,10.368,10.368,0,0,0,6.618,8.306,1.88,1.88,0,0,1,.608.382.489.489,0,0,1,.069.437.5.5,0,0,0-.02.142c.8,3.535-.958,5.09-4.2,5.894a58.132,58.132,0,0,0-6.563,2.513,2.462,2.462,0,0,1-1.5.371,20.821,20.821,0,0,1,.637-3.845c-.541-.365-1.013.342-1.5.032-.139-.229.035-.336.188-.434a6.389,6.389,0,0,0,2.947-5.631c.148-4.114-.533-8.164-.976-12.232-.605-5.564-1.118-11.129.2-16.67a18.284,18.284,0,0,1,1.511-4.053,4.093,4.093,0,0,1,3.668-2.629,1.181,1.181,0,0,0,.947-.527c3.813-4.473,8.7-4.922,13.971-3.567a29.7,29.7,0,0,1,9.328,4.487,14.672,14.672,0,0,1,5.324,7.73,59,59,0,0,1,3.428,18.239,44.174,44.174,0,0,0,.648,9.206A6.136,6.136,0,0,0,671.953,630.46Z" transform="translate(-18879.232 -21415.027)" fill="#1b2e35"/>
    <path id="Path_120380" data-name="Path 120380" d="M287.517,654.335c.148.119.356.206.428.359.6,1.251,1.013,2.635,2.551,3.135.1.035.119.336.177.515a29.466,29.466,0,0,1-6.963,8.367c-2.545,2-3.972,1.977-6.572-.02a41.8,41.8,0,0,1-6.389-6.43c-2.067-2.469-3.969-5.06-5.79-7.721.072-.342-.515-.779.017-1.01a1.815,1.815,0,0,1,1.972.5,15.9,15.9,0,0,1,3.674,3.153c1.592,1.523,3.156,3.069,4.875,4.453.692.553,1.251.68,1.737-.211a1.9,1.9,0,0,1,.272-.336c1.668-1.925,2.05-1.9,3.555.09.289.385.368,1.2,1.2.889a21.368,21.368,0,0,0,1.343-3.15A4.317,4.317,0,0,1,287.517,654.335Z" transform="translate(-18619.66 -21460.076)" fill="#fdfdfd"/>
    <path id="Path_120381" data-name="Path 120381" d="M256.553,747.115q.764,1.757,1.534,3.52c-.087.223-.174.556-.4.1-.489-.99-.979-1.983-1.407-3-.258-.614-.5-.892-1.274-.727-3.793.811-7.582,1.67-11.415,2.238-2.941.434-5.79,1.28-8.723,1.737-1.691.266-3,1.624-4.178,2.9a20.043,20.043,0,0,0-3.075,5.171c-.339.706-.677,1.789-1.639,1.424-1.071-.405-.6-1.448-.327-2.275a11.086,11.086,0,0,1,7.385-7.3c1.077-.356,1.448-.767,1.1-1.951-.515-1.786-.8-3.642-1.181-5.466a.909.909,0,0,1,.22-.932c.706,1.552.727,3.185,1.129,4.7.049.182,0,.388.041.579.385,2.354.709,2.484,3.077,2.087,3.92-.657,7.765-1.665,11.687-2.316,1.966-.327,3.937-.756,5.891-1.2C255.841,746.224,256.255,746.386,256.553,747.115Z" transform="translate(-18591.629 -21524.834)" fill="#ffc100"/>
    <path id="Path_120382" data-name="Path 120382" d="M434.21,779.47a1.626,1.626,0,0,0,1.914,1.175,14.741,14.741,0,0,1,3.581.165h-5.446C434.245,780.365,434.227,779.913,434.21,779.47Z" transform="translate(-18740.1 -21551.066)" fill="#fcbf9d"/>
    <path id="Path_120383" data-name="Path 120383" d="M417.749,312.385l-.541.02c0-1.737-.061-3.474-.023-5.211.017-.851-.223-1.219-1.138-1.2a6.627,6.627,0,0,0-2.8.579c-4.777,2.351-13.152.148-15.842-5.211-2.519-5.029-1.87-10.005,2.745-13.864,2.276-1.9,4.846-3.185,7.909-2.846a29.536,29.536,0,0,1,6.329,1.922,7.846,7.846,0,0,0,.808.31c1.361.31,1.656.026,1.72-1.4.371-8.468.249-16.939.29-25.41.868.124.507.811.512,1.254.035,2.936.023,5.868.026,8.8a5.615,5.615,0,0,0,0,2.649v2.264a2.629,2.629,0,0,0,0,1.786v1.109c-.289,2.524-.049,5.058-.142,7.585a3.4,3.4,0,0,1-.148,1.688c-1.9.831-3.616-.02-5.211-.8-7.643-3.7-14.826,1.986-15.8,8.61-.475,3.26,2.027,8.071,4.893,9.742a13.354,13.354,0,0,0,12.8.9A6.387,6.387,0,0,1,417,305.5c.715.017.767.6.767,1.158v4.053c0,.469-.133.973.232,1.387Z" transform="translate(-18712.912 -21182.041)" fill="#b1b1b1"/>
    <path id="Path_120384" data-name="Path 120384" d="M534.032,352.317v.7c-3.425.637-6.033-1.34-5.695-4.325a2.079,2.079,0,0,1,1.141-1.795c-.787,1.7-.868,3.214.333,4.539A3.635,3.635,0,0,0,534.032,352.317Z" transform="translate(-18806.982 -21243.729)" fill="#67787f"/>
    <path id="Path_120385" data-name="Path 120385" d="M209.257,397.547c4.615-2,9.357-3.645,14.128-5.211.686-.515,1.158-.02,1.653.356a37.718,37.718,0,0,0,4.794,3.185,12.982,12.982,0,0,0,8.234,1.407,3.842,3.842,0,0,0,3.28-2.487c.324-.8.8-1.158,1.662-.747l12.9,3.532a5.405,5.405,0,0,1,2.22,1.537c1.141,1.094,2.238,2.232,3.352,3.352,2.287,3.075,4.592,6.132,6.85,9.224,1.329,1.821,2.565,3.709,3.876,5.541.579.8.669,1.39-.327,1.954a16.267,16.267,0,0,0-1.934,1.485c-.579,1.193-1.737,1.772-2.721,2.493-2.507,1.83-4.8,3.963-7.562,5.443a30.642,30.642,0,0,1-5.179.145c-3.219.043-6.441-.017-9.658.029a2.274,2.274,0,0,1-1.9-.869c-3.969-3.445-13.21-5.385-18.9.014a2,2,0,0,1-1.633.785,39.239,39.239,0,0,0-5.052-.1c-.672,0-1.08-.087-1.074-.924.029-4.224.014-8.448,0-12.674,0,4.105-.023,8.21,0,12.316,0,.868-.142,1.3-1.158,1.291-5.544-.043-11.091-.017-16.635-.023-.275,0-.579.078-.793-.208.744-5.674,2.009-11.256,2.993-16.884.55-3.132,1.106-6.227,2.9-8.992A15.692,15.692,0,0,1,209.257,397.547Z" transform="translate(-18572 -21275.85)" fill="#fe725c"/>
    <path id="Path_120386" data-name="Path 120386" d="M284.892,561.112c-.8.408-1.6.828-2.417,1.219-.767.368-.964,1.094-1.283,1.795-.46,1.019-.333,2.351-1.529,2.994a15.109,15.109,0,0,1-2.232-2.768c-1.783-2.359-4.23-3.989-6.418-5.906-1.123-.984-2.579-1.636-3.237-3.109a4.787,4.787,0,0,1-1.12-3.6c.064-1.491-.049-2.988.017-4.479.058-1.335-.289-2.061-1.818-2.1a4.012,4.012,0,0,1-3.61-2.9c-.579-1.468.255-3.743,1.358-4.777.547-.51,1.673-.116,1.778-1.21a2.888,2.888,0,0,1,2.843,2.374,8.693,8.693,0,0,0,.232.984c.423,1.106,1.343,1.282,2.082.353a6.557,6.557,0,0,0,1.288-3.329c.44-3.578.77-7.125-.579-10.657-1.138-2.982.628-5.443,3.868-5.764a7.769,7.769,0,0,1,3.538.521,43.091,43.091,0,0,0,5.7,1.546,3.886,3.886,0,0,0,4.053-1.2,2.162,2.162,0,0,1,2.42-.8c.269,2.168,1.995,3.628,2.716,5.608a18.348,18.348,0,0,1,.66,4.528,79.267,79.267,0,0,1,.336,8.8c-.014,2.076.353,4.123.289,6.187a19.64,19.64,0,0,1-1.132,7.044,8.043,8.043,0,0,1-5.156,4.493c-1.41.486-2.3,1.013-2.151,2.666A4.3,4.3,0,0,1,284.892,561.112Z" transform="translate(-18617.035 -21366.852)" fill="#febf9d"/>
    <path id="Path_120387" data-name="Path 120387" d="M296.666,507.861c-.145.162.22.973-.339.489-.761-.663-1.1-.255-1.479.258-1.421,1.916-3.332,2.1-5.434,1.534-1.951-.527-3.9-1.074-5.825-1.682a5.356,5.356,0,0,0-2.849-.223c-3.292.79-4.343,2.524-3.216,5.428,1.6,4.146,1.126,8.32.067,12.483a4.053,4.053,0,0,1-1.2,2.108c-.976.869-2.258.62-2.455-.631-.258-1.656-.553-3.089-2.5-3.442-.093-.017-.148-.235-.22-.356a26.442,26.442,0,0,1-.188-9.415,18.44,18.44,0,0,1,3.02-6.6c.229-.252.24-.649.579-.828,3.051-2.9,6.609-4.67,10.882-4.259,3.787.365,7.527,1.074,10.318,4.076a1.778,1.778,0,0,0,.5.266c.373.177.119.579.29.822Z" transform="translate(-18623.871 -21354.398)" fill="#1b2e35"/>
    <path id="Path_120388" data-name="Path 120388" d="M275.4,640.31c2.823,2.359,5.657,4.7,8.456,7.09a3.846,3.846,0,0,1,1.476,1.9c-1.482-.371-2.128.814-2.86,1.656s-1.283,1.045-2.247.255c-2.93-2.4-5.576-5.1-8.26-7.753-.64-1.181.579-1.647.958-2.423C273.456,639.94,274.2,639.274,275.4,640.31Z" transform="translate(-18624.652 -21451.824)" fill="#fdfdfb"/>
    <path id="Path_120389" data-name="Path 120389" d="M272.389,652.44a13.28,13.28,0,0,1,3.127,2.713c1.737,1.644,3.474,3.286,5.315,4.812.686.579,1.138.733,1.714-.11.371-.547.987-.923,1.364-1.468.614-.869,1.193-.718,1.847-.1a8.551,8.551,0,0,1,1.957,2.8c-.116.816-.452.579-.787.148a16.3,16.3,0,0,1-1.43-1.977c-.443-.793-.842-.811-1.393-.156-.217.255-.466.486-.692.732-1.6,1.737-1.668,1.824-3.5.217-2.632-2.3-5.139-4.736-7.527-7.281Z" transform="translate(-18625.08 -21460.811)" fill="#c3c0bd"/>
    <path id="Path_120390" data-name="Path 120390" d="M215.891,482.219c-.148.29-.208.672-.579.828-.151-.637-.672-.428-1.06-.428-8.216-.015-16.432,0-24.646-.035-.457,0-.924.307-1.586-.122,1.007-.437,1.957,0,2.8-.289,5.79,0,11.557,0,17.333.058,1.045,0,1.158-.481,1.158-1.329-.035-3.9-.023-7.8-.029-11.693a2.58,2.58,0,0,1,.272-1.4c0,4.227.067,8.454-.038,12.677-.035,1.419.376,1.847,1.757,1.737C212.8,482.126,214.359,482.216,215.891,482.219Z" transform="translate(-18565.123 -21329.633)" fill="#934b45"/>
    <path id="Path_120391" data-name="Path 120391" d="M413.24,498.23q4.922-3.764,9.861-7.51c-.289,1.291.559,2.3.854,3.439.373,1.43.77,2.852,1.158,4.279-.246.385-.646.362-1.022.362q-4.867.02-9.73,0C413.917,498.794,413.353,498.925,413.24,498.23Z" transform="translate(-18725.197 -21345.908)" fill="#f8bea0"/>
    <path id="Path_120392" data-name="Path 120392" d="M374.887,516.66a.855.855,0,0,0,.785.255l11.088-.046c.35.09.785-.087,1.039.316-.067.431-.394.333-.669.333l-26.264-.032c-.46,0-.981-.148-1.317.347-.35-.185-.252-.53-.289-.822l11.78-.084A15.331,15.331,0,0,0,374.887,516.66Z" transform="translate(-18686.836 -21364.338)" fill="#a18179"/>
    <path id="Path_120393" data-name="Path 120393" d="M294.83,294.943c-.536,0-.99,0-1.213.692-.692,2.192-2.435,2.878-4.537,3.072-4.922.46-8.769-1.876-12.391-4.777-.452-.365-.822-.816-1.482-.712a3.15,3.15,0,0,0,.559-1.876c-.035-3.981,0-7.961-.023-11.945,0-1.757-.249-1.954-1.931-2.111-2.605-.243-3.283-2.278-3.185-4.864.049-1.523,1.083-2.351,2.3-3.011.527.04,1.051.116,1.578.11a1.618,1.618,0,0,1,1.552.822c.718,1.141,1.126,1.126,1.8-.072a22.679,22.679,0,0,0,2.258-7.125,26.03,26.03,0,0,0,.269-6.621,1.917,1.917,0,0,1,.854-1.83,10.179,10.179,0,0,1,6.91-2.053,5.042,5.042,0,0,1,3.509,2.082,23.876,23.876,0,0,0,3.607,3.923,10.081,10.081,0,0,0,4.994,2.067c.967.1,1.207.51,1.219,1.364.017,1.589.075,3.185.168,4.768.029.492-.153,1.091.423,1.448-.55,2.71-.142,5.448-.261,8.17-.1,2.29.29,4.606-.342,6.867a8.3,8.3,0,0,1-6.369,6.114c-.669.174-1.129.4-1.158,1.21a15.883,15.883,0,0,1-.258,2.273A1.758,1.758,0,0,0,294.83,294.943Z" transform="translate(-18623.832 -21176.736)" fill="#fec09c"/>
    <path id="Path_120394" data-name="Path 120394" d="M592.1,344.115c0-1.78.617-2.226,2.29-1.685a3.252,3.252,0,0,1,.663.272c.744.437,2.053.356,1.705,1.818a2.346,2.346,0,0,1-4.658-.405Z" transform="translate(-18852.32 -21240.396)" fill="#794237"/>
    <path id="Path_120395" data-name="Path 120395" d="M603.9,307.62a28.9,28.9,0,0,1,2.606,5.176c.18.391.289.808.475,1.2.912,2.044.547,2.562-1.821,2.556.038-.072.055-.177.107-.2,1.8-.654,1.72-.62.964-2.478A33.5,33.5,0,0,1,603.9,307.62Z" transform="translate(-18860.707 -21215.816)" fill="#633e34"/>
    <path id="Path_120396" data-name="Path 120396" d="M572.83,293.74a3.922,3.922,0,0,1,4.232-1.129c.29.151.689.313.211.7A25.38,25.38,0,0,1,572.83,293.74Z" transform="translate(-18838.625 -21204.977)" fill="#372e2d"/>
    <path id="Path_120397" data-name="Path 120397" d="M619.2,319.645c-.017.785-.344,1.158-1.051,1.158a.894.894,0,0,1-1.016-.941.944.944,0,0,1,1.042-1.074.932.932,0,0,1,1.025.857Z" transform="translate(-18870.109 -21223.748)" fill="#35312d"/>
    <path id="Path_120398" data-name="Path 120398" d="M583.528,318.8a1.01,1.01,0,0,1,1.1.935.968.968,0,0,1-1.057,1.08.955.955,0,0,1-1.08-.915C582.446,319.214,582.9,318.887,583.528,318.8Z" transform="translate(-18845.488 -21223.76)" fill="#37302c"/>
    <path id="Path_120399" data-name="Path 120399" d="M580.371,307.04a5.9,5.9,0,0,0-4.421.229C577.351,305.4,579.366,305.393,580.371,307.04Z" transform="translate(-18840.842 -21214.547)" fill="#42312a"/>
    <path id="Path_120400" data-name="Path 120400" d="M617.666,304.71c-1.216.02-2.409-.434-3.636.62C614.939,303.462,616.337,303.309,617.666,304.71Z" transform="translate(-18867.908 -21213.088)" fill="#4c2e29"/>
    <path id="Path_120401" data-name="Path 120401" d="M470.22,331.073c0-2.588,0-5.173.032-7.762,0-.51-.156-1.062.258-1.511v8.077C470.521,330.294,470.643,330.757,470.22,331.073Z" transform="translate(-18765.691 -21225.893)" fill="#e0e0e0"/>
    <path id="Path_120402" data-name="Path 120402" d="M470.445,297.5a2.97,2.97,0,0,1,0-2.649Z" transform="translate(-18765.631 -21206.746)" fill="#e0e0e0"/>
    <path id="Path_120403" data-name="Path 120403" d="M470.47,313.616a1.473,1.473,0,0,1,0-1.786Z" transform="translate(-18765.656 -21218.811)" fill="#e0e0e0"/>
    <path id="Path_120404" data-name="Path 120404" d="M654.931,642.856c-3.735-1.019-5.923-3.6-7.113-7.136a24.184,24.184,0,0,1-.973-8.141c.064-4.467-.174-8.975.944-13.358a12.316,12.316,0,0,1,3.332-5.816,2.748,2.748,0,0,1,3.04-.718c3.819,1.317,6.424,4.125,8.746,7.261.426.579.139.712-.443.753-.779.058-1.633-.058-2.287.758,1.045.579,2.142.217,3.147.463a2.462,2.462,0,0,1,1.691.935,2.823,2.823,0,0,0,.889.938c2.53,1.358,3.109,3.691,3.234,6.274a4.416,4.416,0,0,0,.223,1.129,2.076,2.076,0,0,0,3.709.868A3.949,3.949,0,0,0,674,625c.125-.547-.324-1.384.594-1.566a2.465,2.465,0,0,1,2.42.579,4.073,4.073,0,0,1,.729,4.2,2.779,2.779,0,0,1-2.771,2.139c-1.291.023-1.448.66-1,1.737-.553-.318-.087-.938-.5-1.274-3.208,3.917-3.911,8.624-4.285,13.439a15.375,15.375,0,0,1-.275,3.442c-2.026,1.3-3.862,2.965-6.4,3.37-2.111.339-5.865-1.158-6.948-3-.541-.918-.214-1.966-.223-2.956.46-.472,1.071-.347,1.633-.431,2.967-.446,5.961-.84,8.051-3.474-2.145.689-4.143,1.737-6.4,1.891A7.638,7.638,0,0,1,654.931,642.856Z" transform="translate(-18891.246 -21428.881)" fill="#febe9e"/>
    <path id="Path_120405" data-name="Path 120405" d="M674.79,723.235a20.265,20.265,0,0,0,10.833-2.606c.151,1.1-.643,1.508-1.172,2.027-1.6,1.6-3.671,2.137-5.816,2.533a17.758,17.758,0,0,1-3.431.29c-.139-.648.15-1.34-.2-1.963A1.826,1.826,0,0,1,674.79,723.235Z" transform="translate(-18911.096 -21509.26)" fill="#f89c6e"/>
    <path id="Path_120406" data-name="Path 120406" d="M333.645,671.891c-1.8,1.52-1.8,1.52-3.628-.443-.811.692-.562,2.006-1.757,2.878a15.55,15.55,0,0,1,1.416-3.659.371.371,0,0,1,.689.017C331.057,672.07,331.948,672.878,333.645,671.891Z" transform="translate(-18664.793 -21473.6)" fill="#c3c0bd"/>
    <path id="Path_120407" data-name="Path 120407" d="M320.964,643.681c.1,1.054-.472,1.338-1.335,1.228-3.106-.394-5.86-1.479-7.817-4.091-.2-.269-.518-.533-.24-.868s.536-.023.773.1a20.9,20.9,0,0,0,7.472,2.438C320.533,642.541,321.2,642.752,320.964,643.681Z" transform="translate(-18652.857 -21451.83)" fill="#f89b6d"/>
    <path id="Path_120408" data-name="Path 120408" d="M338.61,565.7a40.59,40.59,0,0,1,3.234,8.416c.194.686-.289,1.08-.964,1.141-.472.043-.952,0-1.482,0,.142-.486.463-.359.675-.362,1.158,0,1.23-.579.909-1.514-.8-2.365-1.534-4.756-2.29-7.139A3.452,3.452,0,0,1,338.61,565.7Z" transform="translate(-18672.15 -21399.182)" fill="#76594a"/>
    <path id="Path_120409" data-name="Path 120409" d="M313.164,549.189c-1.393-.087-2.49-.153-3.584-.229-.266-.02-.64.069-.692-.318s.324-.423.579-.521a4.507,4.507,0,0,1,3.622.1c.365.162.961.263.793.811C313.734,549.485,313.216,549.184,313.164,549.189Z" transform="translate(-18651.021 -21386.457)" fill="#352e2b"/>
    <path id="Path_120410" data-name="Path 120410" d="M353.17,550.783c-.527,0-1.051.017-1.575,0-.289-.015-.764.139-.8-.339-.029-.376.365-.5.683-.62a4,4,0,0,1,3.185.174c.29.13.672.327.6.712-.1.5-.536.237-.825.226C354.039,550.91,353.6,550.835,353.17,550.783Z" transform="translate(-18680.813 -21387.727)" fill="#332c2b"/>
    <path id="Path_120411" data-name="Path 120411" d="M357.941,574.7a1.051,1.051,0,0,1-1.158,1.019c-.669,0-1.123-.37-1.065-1.06a1.117,1.117,0,0,1,2.232.04Z" transform="translate(-18684.307 -21404.807)" fill="#393436"/>
    <path id="Path_120412" data-name="Path 120412" d="M319.581,573.64c.721,0,1.158.336,1.2,1a.944.944,0,0,1-1.022,1.086c-.654,0-1.129-.289-1.158-.976A1.012,1.012,0,0,1,319.581,573.64Z" transform="translate(-18657.924 -21404.822)" fill="#343139"/>
    <path id="Path_120413" data-name="Path 120413" d="M351.21,562.96c1.132-1.549,3.008-1.494,4.441.249A6.794,6.794,0,0,0,351.21,562.96Z" transform="translate(-18681.107 -21396.445)" fill="#634d3d"/>
    <path id="Path_120414" data-name="Path 120414" d="M328.813,603.472c-1.879.666-3.451-.62-3.329-3.132C326.222,602.184,327.227,603.18,328.813,603.472Z" transform="translate(-18662.816 -21423.793)" fill="#624b3e"/>
    <path id="Path_120415" data-name="Path 120415" d="M314.664,562.638a5.973,5.973,0,0,0-4.444-.171C311.476,560.9,313.318,560.994,314.664,562.638Z" transform="translate(-18651.971 -21396.088)" fill="#644739"/>
    <path id="Path_120416" data-name="Path 120416" d="M326.016,374.974a9.228,9.228,0,0,1-7.258-3.92c-.182-.232-.391-.495-.206-.767.226-.333.53-.093.753.046a19.951,19.951,0,0,0,6.835,2.429c.683.13,1.757-.064,1.552,1.3C327.507,375.3,326.581,374.818,326.016,374.974Z" transform="translate(-18657.846 -21260.223)" fill="#f89e71"/>
    <path id="Path_120417" data-name="Path 120417" d="M345.7,307.713c1.737-.055,1.659-.828,1.2-2.082a64.412,64.412,0,0,1-2.047-6.971,15.839,15.839,0,0,1,1.9,4.343c.359.935.643,1.9.935,2.86.179.579.5,1.233,0,1.772C347.14,308.248,346.431,307.93,345.7,307.713Z" transform="translate(-18676.586 -21209.453)" fill="#856550"/>
    <path id="Path_120418" data-name="Path 120418" d="M315.14,282.651c1.222-1.245,3.862-1.346,4.922-.29a.837.837,0,0,1,.289.46c0,.217-.226.29-.423.29C318.359,282.958,316.8,282.808,315.14,282.651Z" transform="translate(-18655.467 -21197.357)" fill="#4d3f40"/>
    <path id="Path_120419" data-name="Path 120419" d="M359.961,284.5c-.99-.052-1.8-.1-2.606-.145-.275-.014-.634.049-.724-.29-.116-.446.31-.565.594-.663a3.975,3.975,0,0,1,2.8.023c.385.151.952.324.851.819C360.755,284.849,360.152,284.421,359.961,284.5Z" transform="translate(-18684.943 -21198.438)" fill="#4b3f39"/>
    <path id="Path_120420" data-name="Path 120420" d="M323,307.581a.978.978,0,0,1,1.158-.929.906.906,0,0,1,.932,1.028.993.993,0,0,1-1.158.97A.982.982,0,0,1,323,307.581Z" transform="translate(-18661.057 -21215.123)" fill="#343032"/>
    <path id="Path_120421" data-name="Path 120421" d="M360.744,308.275a1,1,0,0,1-1.158.915.869.869,0,0,1-.912-1.025,1.036,1.036,0,1,1,2.07.11Z" transform="translate(-18686.398 -21215.496)" fill="#363234"/>
    <path id="Path_120422" data-name="Path 120422" d="M332.21,333.39a4.637,4.637,0,0,0,3.326,2.768C333.336,336.606,332.056,335.541,332.21,333.39Z" transform="translate(-18667.592 -21234.129)" fill="#6c5044"/>
    <path id="Path_120423" data-name="Path 120423" d="M361.1,296.308a6.791,6.791,0,0,0-3.874-.165A2.255,2.255,0,0,1,361.1,296.308Z" transform="translate(-18685.385 -21206.938)" fill="#664e41"/>
    <path id="Path_120424" data-name="Path 120424" d="M317.92,295.445c1.644-1.256,3-1.109,3.926.417A6.285,6.285,0,0,0,317.92,295.445Z" transform="translate(-18657.447 -21206.566)" fill="#61483c"/>
    <path id="Path_120425" data-name="Path 120425" d="M656.3,637.957a3.8,3.8,0,0,1-.556.023c-.428-.064-1.109.475-1.239-.188-.119-.619.625-.721,1.126-.868a.778.778,0,0,1,.142-.035c.869-.1,2.108-.232,2.206.683C658.061,638.318,656.8,637.74,656.3,637.957Z" transform="translate(-18896.67 -21449.713)" fill="#322422"/>
    <path id="Path_120426" data-name="Path 120426" d="M656.057,661.576a.979.979,0,0,1-1.036.987.963.963,0,0,1-1.068-1.071.906.906,0,0,1,1-.976A1.043,1.043,0,0,1,656.057,661.576Z" transform="translate(-18896.279 -21466.545)" fill="#383430"/>
    <path id="Path_120427" data-name="Path 120427" d="M693.129,661.213a.973.973,0,0,1-1.019.955,1.014,1.014,0,0,1-1.071-1.074c.017-.692.5-.981,1.158-.929S693.1,660.594,693.129,661.213Z" transform="translate(-18922.643 -21466.295)" fill="#302e34"/>
    <path id="Path_120428" data-name="Path 120428" d="M679.06,689.185c1.546-.686,2.831-1.448,3.407-3.185C682.838,688.316,681.544,689.512,679.06,689.185Z" transform="translate(-18914.131 -21484.654)" fill="#603c2c"/>
    <path id="Path_120429" data-name="Path 120429" d="M695.59,650.673a5.182,5.182,0,0,0-4.51.066C692.328,649.005,694.059,648.965,695.59,650.673Z" transform="translate(-18922.674 -21458.66)" fill="#684d3f"/>
    <path id="Path_120430" data-name="Path 120430" d="M656.506,650.526a5.771,5.771,0,0,0-4.276.07C653.773,648.96,655.443,649,656.506,650.526Z" transform="translate(-18895.057 -21458.633)" fill="#61473c"/>
  </g>
</svg>
